0
SECTION
2
HEADER
9
$INSUNITS
70
4
9
$ACADVER
1
AC1014
9
$HANDSEED
5
FFFF
0
ENDSEC
0
SECTION
2
TABLES
0
TABLE
2
VPORT
5
8
100
AcDbSymbolTable
0
ENDTAB
0
TABLE
2
LTYPE
5
5
100
AcDbSymbolTable
0
LTYPE
5
14
100
AcDbSymbolTableRecord
100
AcDbLinetypeTableRecord
2
BYBLOCK
70
0
0
LTYPE
5
15
100
AcDbSymbolTableRecord
100
AcDbLinetypeTableRecord
2
BYLAYER
70
0
0
LTYPE
5
16
100
AcDbSymbolTableRecord
100
AcDbLinetypeTableRecord
2
DASHED
70
0
3
Dashed __ __ __ __ __ __ __ __ __ __ __ __ __ _
72
65
73
2
40
0.75
49
0.5
74
0
49
-0.25
74
0
0
ENDTAB
0
TABLE
2
LAYER
5
2
100
AcDbSymbolTable
70
2
0
LAYER
5
50
100
AcDbSymbolTableRecord
100
AcDbLayerTableRecord
2
0
70
0
62
7
6
CONTINUOUS
0
ENDTAB
0
TABLE
2
STYLE
5
3
100
AcDbSymbolTable
70
1
0
STYLE
5
11
100
AcDbSymbolTableRecord
100
AcDbTextStyleTableRecord
2
STANDARD
70
0
0
ENDTAB
0
TABLE
2
VIEW
5
6
100
AcDbSymbolTable
70
0
0
ENDTAB
0
TABLE
2
UCS
5
7
100
AcDbSymbolTable
70
0
0
ENDTAB
0
TABLE
2
APPID
5
9
100
AcDbSymbolTable
70
2
0
APPID
5
12
100
AcDbSymbolTableRecord
100
AcDbRegAppTableRecord
2
ACAD
70
0
0
ENDTAB
0
TABLE
2
DIMSTYLE
5
A
100
AcDbSymbolTable
70
1
0
ENDTAB
0
TABLE
2
BLOCK_RECORD
5
1
100
AcDbSymbolTable
70
1
0
BLOCK_RECORD
5
1F
100
AcDbSymbolTableRecord
100
AcDbBlockTableRecord
2
*MODEL_SPACE
0
BLOCK_RECORD
5
1B
100
AcDbSymbolTableRecord
100
AcDbBlockTableRecord
2
*PAPER_SPACE
0
ENDTAB
0
ENDSEC
0
SECTION
2
BLOCKS
0
BLOCK
5
20
100
AcDbEntity
100
AcDbBlockBegin
2
*MODEL_SPACE
0
ENDBLK
5
21
100
AcDbEntity
100
AcDbBlockEnd
0
BLOCK
5
1C
100
AcDbEntity
100
AcDbBlockBegin
2
*PAPER_SPACE
0
ENDBLK
5
1D
100
AcDbEntity
100
AcDbBlockEnd
0
ENDSEC
0
SECTION
2
ENTITIES
0
POINT
5
100
100
AcDbEntity
8
0
100
AcDbPoint
10
0
20
0
30
0
0
POINT
5
101
100
AcDbEntity
8
0
100
AcDbPoint
10
0
20
70
30
0
0
POINT
5
102
100
AcDbEntity
8
0
100
AcDbPoint
10
0
20
70
30
0
0
POINT
5
103
100
AcDbEntity
8
0
100
AcDbPoint
10
0
20
170
30
0
0
POINT
5
104
100
AcDbEntity
8
0
100
AcDbPoint
10
0
20
0
30
0
0
POINT
5
105
100
AcDbEntity
8
0
100
AcDbPoint
10
280
20
4.4902353440395221e-14
30
0
0
POINT
5
106
100
AcDbEntity
8
0
100
AcDbPoint
10
90
20
8.8817841970012523e-15
30
0
0
POINT
5
107
100
AcDbEntity
8
0
100
AcDbPoint
10
180
20
8.8817841970012523e-15
30
0
0
POINT
5
108
100
AcDbEntity
8
0
100
AcDbPoint
10
-100
20
8.388351741612294e-15
30
0
0
POINT
5
109
100
AcDbEntity
8
0
100
AcDbPoint
10
0
20
0
30
0
0
POINT
5
110
100
AcDbEntity
8
0
100
AcDbPoint
10
90.000000000000014
20
-100
30
0
0
POINT
5
111
100
AcDbEntity
8
0
100
AcDbPoint
10
1.3322676295501878e-14
20
-100
30
0
0
POINT
5
112
100
AcDbEntity
8
0
100
AcDbPoint
10
180
20
-100
30
0
0
POINT
5
113
100
AcDbEntity
8
0
100
AcDbPoint
10
100
20
125.00000000000003
30
0
0
LINE
5
114
100
AcDbEntity
8
0
100
AcDbLine
10
0
20
0
30
0
11
180
21
4.898587196589413e-15
31
0
0
LINE
5
115
100
AcDbEntity
8
0
100
AcDbLine
10
180
20
4.898587196589413e-15
30
0
11
180
21
70.000000000000014
31
0
0
LINE
5
116
100
AcDbEntity
8
0
100
AcDbLine
10
180
20
70.000000000000014
30
0
11
-4.2862637970157365e-15
21
70
31
0
0
LINE
5
117
100
AcDbEntity
8
0
100
AcDbLine
10
-4.2862637970157365e-15
20
70
30
0
11
0
21
0
31
0
0
LINE
5
118
100
AcDbEntity
8
0
100
AcDbLine
10
-4.2862637970157365e-15
20
70
30
0
11
180
21
70
31
0
0
LINE
5
119
100
AcDbEntity
8
0
100
AcDbLine
10
280
20
-1.2246467991473485e-15
30
0
11
280
21
69.999999999999986
31
0
0
LINE
5
120
100
AcDbEntity
8
0
100
AcDbLine
10
180
20
70.000000000000014
30
0
11
180
21
4.898587196589413e-15
31
0
0
LINE
5
121
100
AcDbEntity
8
0
100
AcDbLine
10
180
20
70.000000000000014
30
0
11
180
21
74.400000000000006
31
0
0
LINE
5
122
100
AcDbEntity
8
0
100
AcDbLine
10
180
20
74.400000000000006
30
0
11
192.5
21
74.400000000000006
31
0
0
LINE
5
123
100
AcDbEntity
8
0
100
AcDbLine
10
192.5
20
74.400000000000006
30
0
11
192.5
21
70
31
0
0
LINE
5
124
100
AcDbEntity
8
0
100
AcDbLine
10
192.5
20
70
30
0
11
205
21
69.999999999999957
31
0
0
LINE
5
125
100
AcDbEntity
8
0
100
AcDbLine
10
217.5
20
70
30
0
11
230
21
69.999999999999957
31
0
0
LINE
5
126
100
AcDbEntity
8
0
100
AcDbLine
10
217.5
20
74.400000000000006
30
0
11
217.5
21
70
31
0
0
LINE
5
127
100
AcDbEntity
8
0
100
AcDbLine
10
205
20
74.400000000000006
30
0
11
217.5
21
74.400000000000006
31
0
0
LINE
5
128
100
AcDbEntity
8
0
100
AcDbLine
10
205
20
70.000000000000014
30
0
11
205
21
74.400000000000006
31
0
0
LINE
5
129
100
AcDbEntity
8
0
100
AcDbLine
10
242.5
20
70
30
0
11
255
21
69.999999999999957
31
0
0
LINE
5
130
100
AcDbEntity
8
0
100
AcDbLine
10
242.5
20
74.400000000000006
30
0
11
242.5
21
70
31
0
0
LINE
5
131
100
AcDbEntity
8
0
100
AcDbLine
10
230
20
74.400000000000006
30
0
11
242.5
21
74.400000000000006
31
0
0
LINE
5
132
100
AcDbEntity
8
0
100
AcDbLine
10
230
20
70.000000000000014
30
0
11
230
21
74.400000000000006
31
0
0
LINE
5
133
100
AcDbEntity
8
0
100
AcDbLine
10
267.5
20
70
30
0
11
280
21
69.999999999999957
31
0
0
LINE
5
134
100
AcDbEntity
8
0
100
AcDbLine
10
267.5
20
74.400000000000006
30
0
11
267.5
21
70
31
0
0
LINE
5
135
100
AcDbEntity
8
0
100
AcDbLine
10
255
20
74.400000000000006
30
0
11
267.5
21
74.400000000000006
31
0
0
LINE
5
136
100
AcDbEntity
8
0
100
AcDbLine
10
255
20
70.000000000000014
30
0
11
255
21
74.400000000000006
31
0
0
LINE
5
137
100
AcDbEntity
8
0
100
AcDbLine
10
180
20
70.000000000000014
30
0
11
180
21
82.5
31
0
0
LINE
5
138
100
AcDbEntity
8
0
100
AcDbLine
10
180
20
82.5
30
0
11
184.40000000000001
21
82.5
31
0
0
LINE
5
139
100
AcDbEntity
8
0
100
AcDbLine
10
184.40000000000001
20
82.5
30
0
11
184.40000000000001
21
95
31
0
0
LINE
5
140
100
AcDbEntity
8
0
100
AcDbLine
10
-62.5
20
70
30
0
11
-75
21
69.999999999999957
31
0
0
LINE
5
141
100
AcDbEntity
8
0
100
AcDbLine
10
-50
20
74.400000000000006
30
0
11
-62.5
21
74.400000000000006
31
0
0
LINE
5
142
100
AcDbEntity
8
0
100
AcDbLine
10
-37.5
20
74.400000000000006
30
0
11
-37.5
21
70
31
0
0
LINE
5
143
100
AcDbEntity
8
0
100
AcDbLine
10
-25
20
74.400000000000006
30
0
11
-37.5
21
74.400000000000006
31
0
0
LINE
5
144
100
AcDbEntity
8
0
100
AcDbLine
10
0
20
74.400000000000006
30
0
11
-12.5
21
74.400000000000006
31
0
0
LINE
5
145
100
AcDbEntity
8
0
100
AcDbLine
10
0
20
70
30
0
11
0
21
74.400000000000006
31
0
0
LINE
5
146
100
AcDbEntity
8
0
100
AcDbLine
10
-87.5
20
74.400000000000006
30
0
11
-87.5
21
70
31
0
0
LINE
5
147
100
AcDbEntity
8
0
100
AcDbLine
10
-50
20
70.000000000000014
30
0
11
-50
21
74.400000000000006
31
0
0
LINE
5
148
100
AcDbEntity
8
0
100
AcDbLine
10
-12.5
20
74.400000000000006
30
0
11
-12.5
21
70
31
0
0
LINE
5
149
100
AcDbEntity
8
0
100
AcDbLine
10
-62.5
20
74.400000000000006
30
0
11
-62.5
21
70
31
0
0
LINE
5
150
100
AcDbEntity
8
0
100
AcDbLine
10
-37.5
20
70
30
0
11
-50
21
69.999999999999957
31
0
0
LINE
5
151
100
AcDbEntity
8
0
100
AcDbLine
10
-12.5
20
70
30
0
11
-25
21
69.999999999999957
31
0
0
LINE
5
152
100
AcDbEntity
8
0
100
AcDbLine
10
-25
20
70.000000000000014
30
0
11
-25
21
74.400000000000006
31
0
0
LINE
5
153
100
AcDbEntity
8
0
100
AcDbLine
10
-87.5
20
70
30
0
11
-100
21
69.999999999999957
31
0
0
LINE
5
154
100
AcDbEntity
8
0
100
AcDbLine
10
-75
20
70.000000000000014
30
0
11
-75
21
74.400000000000006
31
0
0
LINE
5
155
100
AcDbEntity
8
0
100
AcDbLine
10
-75
20
74.400000000000006
30
0
11
-87.5
21
74.400000000000006
31
0
0
LINE
5
156
100
AcDbEntity
8
0
100
AcDbLine
10
-100
20
-1.2246467991473485e-15
30
0
11
-100
21
69.999999999999986
31
0
0
LINE
5
157
100
AcDbEntity
8
0
100
AcDbLine
10
-50
20
-1.5789838572446671e-14
30
0
11
-50
21
-4.4000000000000199
31
0
0
LINE
5
158
100
AcDbEntity
8
0
100
AcDbLine
10
-12.499999999999996
20
-4.4000000000000137
30
0
11
-12.499999999999996
21
-6.1679056923619786e-16
31
0
0
LINE
5
159
100
AcDbEntity
8
0
100
AcDbLine
10
-62.5
20
-4.4000000000000208
30
0
11
-62.5
21
-7.5248449446816159e-15
31
0
0
LINE
5
160
100
AcDbEntity
8
0
100
AcDbLine
10
-37.5
20
-1.850371707708594e-15
30
0
11
-50
21
3.7500866609560842e-14
31
0
0
LINE
5
161
100
AcDbEntity
8
0
100
AcDbLine
10
-24.999999999999996
20
-4.4000000000000137
30
0
11
-37.5
21
-4.4000000000000146
31
0
0
LINE
5
162
100
AcDbEntity
8
0
100
AcDbLine
10
242.5
20
2.528841333868412e-14
30
0
11
255
21
7.0314124892926572e-14
31
0
0
LINE
5
163
100
AcDbEntity
8
0
100
AcDbLine
10
255
20
-4.399999999999987
30
0
11
267.5
21
-4.3999999999999861
31
0
0
LINE
5
164
100
AcDbEntity
8
0
100
AcDbLine
10
205
20
1.0115365335473649e-14
30
0
11
205
21
-4.3999999999999941
31
0
0
LINE
5
165
100
AcDbEntity
8
0
100
AcDbLine
10
230
20
1.5789838572446671e-14
30
0
11
230
21
-4.3999999999999879
31
0
0
LINE
5
166
100
AcDbEntity
8
0
100
AcDbLine
10
242.5
20
-4.399999999999987
30
0
11
242.5
21
2.528841333868412e-14
31
0
0
LINE
5
167
100
AcDbEntity
8
0
100
AcDbLine
10
230
20
-4.3999999999999879
30
0
11
242.5
21
-4.399999999999987
31
0
0
LINE
5
168
100
AcDbEntity
8
0
100
AcDbLine
10
-4.2862637970157365e-15
20
0
30
0
11
180
21
1.7763568394002505e-14
31
0
0
LINE
5
169
100
AcDbEntity
8
0
100
AcDbLine
10
0
20
0
30
0
11
0
21
-4.4000000000000039
31
0
0
LINE
5
170
100
AcDbEntity
8
0
100
AcDbLine
10
-87.5
20
-8.7584260831540124e-15
30
0
11
-100
21
3.5033704332616049e-14
31
0
0
LINE
5
171
100
AcDbEntity
8
0
100
AcDbLine
10
0
20
-4.4000000000000039
30
0
11
-12.499999999999996
21
-4.4000000000000137
31
0
0
LINE
5
172
100
AcDbEntity
8
0
100
AcDbLine
10
-87.5
20
-4.4000000000000217
30
0
11
-87.5
21
-8.7584260831540124e-15
31
0
0
LINE
5
173
100
AcDbEntity
8
0
100
AcDbLine
10
-75
20
-4.4000000000000208
30
0
11
-87.5
21
-4.4000000000000217
31
0
0
LINE
5
174
100
AcDbEntity
8
0
100
AcDbLine
10
180
20
-4.399999999999995
30
0
11
192.5
21
-4.3999999999999941
31
0
0
LINE
5
175
100
AcDbEntity
8
0
100
AcDbLine
10
-37.5
20
-4.4000000000000146
30
0
11
-37.5
21
-1.850371707708594e-15
31
0
0
LINE
5
176
100
AcDbEntity
8
0
100
AcDbLine
10
-75
20
-1.7023419710919065e-14
30
0
11
-75
21
-4.4000000000000208
31
0
0
LINE
5
177
100
AcDbEntity
8
0
100
AcDbLine
10
-12.499999999999996
20
-6.1679056923619786e-16
30
0
11
-24.999999999999996
21
4.3175339846533862e-14
31
0
0
LINE
5
178
100
AcDbEntity
8
0
100
AcDbLine
10
-50
20
-4.4000000000000199
30
0
11
-62.5
21
-4.4000000000000208
31
0
0
LINE
5
179
100
AcDbEntity
8
0
100
AcDbLine
10
-62.5
20
-7.5248449446816159e-15
30
0
11
-75
21
3.6267285471088443e-14
31
0
0
LINE
5
180
100
AcDbEntity
8
0
100
AcDbLine
10
180
20
8.8817841970012523e-15
30
0
11
180
21
-4.399999999999995
31
0
0
LINE
5
181
100
AcDbEntity
8
0
100
AcDbLine
10
-24.999999999999996
20
-1.0115365335473649e-14
30
0
11
-24.999999999999996
21
-4.4000000000000137
31
0
0
LINE
5
182
100
AcDbEntity
8
0
100
AcDbLine
10
255
20
1.7023419710919065e-14
30
0
11
255
21
-4.399999999999987
31
0
0
LINE
5
183
100
AcDbEntity
8
0
100
AcDbLine
10
205
20
-4.3999999999999941
30
0
11
217.5
21
-4.3999999999999932
31
0
0
LINE
5
184
100
AcDbEntity
8
0
100
AcDbLine
10
267.5
20
2.6521994477156514e-14
30
0
11
280
21
7.1547706031398978e-14
31
0
0
LINE
5
185
100
AcDbEntity
8
0
100
AcDbLine
10
192.5
20
1.8380358963238704e-14
30
0
11
205
21
6.340607051748116e-14
31
0
0
LINE
5
186
100
AcDbEntity
8
0
100
AcDbLine
10
217.5
20
1.9613940101711095e-14
30
0
11
230
21
6.9080543754454179e-14
31
0
0
LINE
5
187
100
AcDbEntity
8
0
100
AcDbLine
10
217.5
20
-4.3999999999999932
30
0
11
217.5
21
1.9613940101711095e-14
31
0
0
LINE
5
188
100
AcDbEntity
8
0
100
AcDbLine
10
192.5
20
-4.3999999999999941
30
0
11
192.5
21
1.8380358963238704e-14
31
0
0
LINE
5
189
100
AcDbEntity
8
0
100
AcDbLine
10
267.5
20
-4.3999999999999861
30
0
11
267.5
21
2.6521994477156514e-14
31
0
0
SPLINE
5
190
100
AcDbEntity
8
0
100
AcDbSpline
70
4
71
5
72
16
73
10
74
0
42
0.000000001
43
0.0000000001
44
0.0000000001
40
0
40
0
40
0
40
0
40
0
40
0
40
0.20000000000000001
40
0.40000000000000002
40
0.60000000000000009
40
0.80000000000000004
40
1
40
1
40
1
40
1
40
1
40
1
41
1
41
1
41
1
41
1
41
1
41
1
41
1
41
1
41
1
41
1
10
184.40000000000001
20
95
30
0
10
184.22400010728066
20
95.000000056615605
30
0
10
183.87200032184396
20
95.000000169849102
30
0
10
183.34400064369547
20
95.000000339707
30
0
10
182.6400010728417
20
95.000000566197812
30
0
10
181.76000160928783
20
95.000000849326909
30
0
10
181.05600203845222
20
95.000001075837517
30
0
10
180.52800236032934
20
95.000001245723084
30
0
10
180.17600257491554
20
95.000001358981024
30
0
10
180.00000268220901
20
95.000001415610313
30
0
0
LINE
5
191
100
AcDbEntity
8
0
100
AcDbLine
10
180
20
107.5
30
0
11
184.40000000000001
21
107.5
31
0
0
LINE
5
192
100
AcDbEntity
8
0
100
AcDbLine
10
184.40000000000001
20
107.5
30
0
11
184.40000000000001
21
120
31
0
0
SPLINE
5
193
100
AcDbEntity
8
0
100
AcDbSpline
70
4
71
5
72
16
73
10
74
0
42
0.000000001
43
0.0000000001
44
0.0000000001
40
0
40
0
40
0
40
0
40
0
40
0
40
0.20000000000000001
40
0.40000000000000002
40
0.60000000000000009
40
0.80000000000000004
40
1
40
1
40
1
40
1
40
1
40
1
41
1
41
1
41
1
41
1
41
1
41
1
41
1
41
1
41
1
41
1
10
184.40000000000001
20
120
30
0
10
184.22400010728066
20
120.0000000566156
30
0
10
183.87200032184396
20
120.0000001698491
30
0
10
183.34400064369547
20
120.000000339707
30
0
10
182.6400010728417
20
120.00000056619781
30
0
10
181.76000160928783
20
120.00000084932691
30
0
10
181.05600203845222
20
120.00000107583752
30
0
10
180.52800236032934
20
120.00000124572308
30
0
10
180.17600257491554
20
120.00000135898102
30
0
10
180.00000268220901
20
120.00000141561031
30
0
0
LINE
5
194
100
AcDbEntity
8
0
100
AcDbLine
10
180
20
95
30
0
11
180
21
107.5
31
0
0
LINE
5
195
100
AcDbEntity
8
0
100
AcDbLine
10
180
20
132.5
30
0
11
184.40000000000001
21
132.5
31
0
0
LINE
5
196
100
AcDbEntity
8
0
100
AcDbLine
10
184.40000000000001
20
132.5
30
0
11
184.40000000000001
21
145
31
0
0
SPLINE
5
197
100
AcDbEntity
8
0
100
AcDbSpline
70
4
71
5
72
16
73
10
74
0
42
0.000000001
43
0.0000000001
44
0.0000000001
40
0
40
0
40
0
40
0
40
0
40
0
40
0.20000000000000001
40
0.40000000000000002
40
0.60000000000000009
40
0.80000000000000004
40
1
40
1
40
1
40
1
40
1
40
1
41
1
41
1
41
1
41
1
41
1
41
1
41
1
41
1
41
1
41
1
10
184.40000000000001
20
145
30
0
10
184.22400010728066
20
145.00000005661559
30
0
10
183.87200032184396
20
145.0000001698491
30
0
10
183.34400064369547
20
145.00000033970701
30
0
10
182.6400010728417
20
145.0000005661978
30
0
10
181.76000160928783
20
145.00000084932691
30
0
10
181.05600203845222
20
145.00000107583753
30
0
10
180.52800236032934
20
145.00000124572307
30
0
10
180.17600257491554
20
145.00000135898102
30
0
10
180.00000268220901
20
145.00000141561031
30
0
0
LINE
5
198
100
AcDbEntity
8
0
100
AcDbLine
10
180
20
120
30
0
11
180
21
132.5
31
0
0
LINE
5
199
100
AcDbEntity
8
0
100
AcDbLine
10
180
20
157.5
30
0
11
184.40000000000001
21
157.5
31
0
0
LINE
5
200
100
AcDbEntity
8
0
100
AcDbLine
10
184.40000000000001
20
157.5
30
0
11
184.40000000000001
21
170
31
0
0
SPLINE
5
201
100
AcDbEntity
8
0
100
AcDbSpline
70
4
71
5
72
16
73
10
74
0
42
0.000000001
43
0.0000000001
44
0.0000000001
40
0
40
0
40
0
40
0
40
0
40
0
40
0.20000000000000001
40
0.40000000000000002
40
0.60000000000000009
40
0.80000000000000004
40
1
40
1
40
1
40
1
40
1
40
1
41
1
41
1
41
1
41
1
41
1
41
1
41
1
41
1
41
1
41
1
10
184.40000000000001
20
170
30
0
10
184.22400010728066
20
170.00000005661562
30
0
10
183.87200032184396
20
170.0000001698491
30
0
10
183.34400064369547
20
170.00000033970701
30
0
10
182.6400010728417
20
170.00000056619783
30
0
10
181.76000160928783
20
170.00000084932691
30
0
10
181.05600203845222
20
170.00000107583753
30
0
10
180.52800236032934
20
170.0000012457231
30
0
10
180.17600257491554
20
170.00000135898102
30
0
10
180.00000268220901
20
170.00000141561031
30
0
0
LINE
5
202
100
AcDbEntity
8
0
100
AcDbLine
10
180
20
145
30
0
11
180
21
157.5
31
0
0
LINE
5
203
100
AcDbEntity
8
0
100
AcDbLine
10
-4.4000000000000128
20
157.5
30
0
11
-4.4000000000000128
21
170
31
0
0
SPLINE
5
204
100
AcDbEntity
8
0
100
AcDbSpline
70
4
71
5
72
16
73
10
74
0
42
0.000000001
43
0.0000000001
44
0.0000000001
40
0
40
0
40
0
40
0
40
0
40
0
40
0.20000000000000001
40
0.40000000000000002
40
0.60000000000000009
40
0.80000000000000004
40
1
40
1
40
1
40
1
40
1
40
1
41
1
41
1
41
1
41
1
41
1
41
1
41
1
41
1
41
1
41
1
10
-4.4000000000000128
20
120
30
0
10
-4.2240001072806521
20
120.0000000566156
30
0
10
-3.8720003218439558
20
120.0000001698491
30
0
10
-3.3440006436954661
20
120.000000339707
30
0
10
-2.6400010728416845
20
120.00000056619781
30
0
10
-1.7600016092878334
20
120.00000084932691
30
0
10
-1.0560020384522062
20
120.00000107583752
30
0
10
-0.52800236032933157
20
120.00000124572308
30
0
10
-0.17600257491555027
20
120.00000135898102
30
0
10
-2.6822090148925781e-06
20
120.00000141561031
30
0
0
LINE
5
205
100
AcDbEntity
8
0
100
AcDbLine
10
0
20
157.5
30
0
11
-4.4000000000000128
21
157.5
31
0
0
LINE
5
206
100
AcDbEntity
8
0
100
AcDbLine
10
-4.4000000000000128
20
132.5
30
0
11
-4.4000000000000128
21
145
31
0
0
LINE
5
207
100
AcDbEntity
8
0
100
AcDbLine
10
0
20
82.5
30
0
11
-4.4000000000000128
21
82.5
31
0
0
LINE
5
208
100
AcDbEntity
8
0
100
AcDbLine
10
0
20
170
30
0
11
180
21
170
31
0
0
LINE
5
209
100
AcDbEntity
8
0
100
AcDbLine
10
-4.4000000000000128
20
107.5
30
0
11
-4.4000000000000128
21
120
31
0
0
LINE
5
210
100
AcDbEntity
8
0
100
AcDbLine
10
0
20
120
30
0
11
0
21
132.5
31
0
0
LINE
5
211
100
AcDbEntity
8
0
100
AcDbLine
10
0
20
95
30
0
11
0
21
107.5
31
0
0
SPLINE
5
212
100
AcDbEntity
8
0
100
AcDbSpline
70
4
71
5
72
16
73
10
74
0
42
0.000000001
43
0.0000000001
44
0.0000000001
40
0
40
0
40
0
40
0
40
0
40
0
40
0.20000000000000001
40
0.40000000000000002
40
0.60000000000000009
40
0.80000000000000004
40
1
40
1
40
1
40
1
40
1
40
1
41
1
41
1
41
1
41
1
41
1
41
1
41
1
41
1
41
1
41
1
10
-4.4000000000000128
20
170
30
0
10
-4.2240001072806521
20
170.00000005661562
30
0
10
-3.8720003218439558
20
170.0000001698491
30
0
10
-3.3440006436954661
20
170.00000033970701
30
0
10
-2.6400010728416845
20
170.00000056619783
30
0
10
-1.7600016092878334
20
170.00000084932691
30
0
10
-1.0560020384522062
20
170.00000107583753
30
0
10
-0.52800236032933157
20
170.0000012457231
30
0
10
-0.17600257491555027
20
170.00000135898102
30
0
10
-2.6822090148925781e-06
20
170.00000141561031
30
0
0
SPLINE
5
213
100
AcDbEntity
8
0
100
AcDbSpline
70
4
71
5
72
16
73
10
74
0
42
0.000000001
43
0.0000000001
44
0.0000000001
40
0
40
0
40
0
40
0
40
0
40
0
40
0.20000000000000001
40
0.40000000000000002
40
0.60000000000000009
40
0.80000000000000004
40
1
40
1
40
1
40
1
40
1
40
1
41
1
41
1
41
1
41
1
41
1
41
1
41
1
41
1
41
1
41
1
10
-4.4000000000000128
20
145
30
0
10
-4.2240001072806521
20
145.00000005661559
30
0
10
-3.8720003218439558
20
145.0000001698491
30
0
10
-3.3440006436954661
20
145.00000033970701
30
0
10
-2.6400010728416845
20
145.0000005661978
30
0
10
-1.7600016092878334
20
145.00000084932691
30
0
10
-1.0560020384522062
20
145.00000107583753
30
0
10
-0.52800236032933157
20
145.00000124572307
30
0
10
-0.17600257491555027
20
145.00000135898102
30
0
10
-2.6822090148925781e-06
20
145.00000141561031
30
0
0
LINE
5
214
100
AcDbEntity
8
0
100
AcDbLine
10
0
20
70
30
0
11
0
21
82.5
31
0
0
LINE
5
215
100
AcDbEntity
8
0
100
AcDbLine
10
0
20
145
30
0
11
0
21
157.5
31
0
0
LINE
5
216
100
AcDbEntity
8
0
100
AcDbLine
10
-4.4000000000000128
20
82.5
30
0
11
-4.4000000000000128
21
95
31
0
0
LINE
5
217
100
AcDbEntity
8
0
100
AcDbLine
10
0
20
132.5
30
0
11
-4.4000000000000128
21
132.5
31
0
0
LINE
5
218
100
AcDbEntity
8
0
100
AcDbLine
10
0
20
107.5
30
0
11
-4.4000000000000128
21
107.5
31
0
0
SPLINE
5
219
100
AcDbEntity
8
0
100
AcDbSpline
70
4
71
5
72
16
73
10
74
0
42
0.000000001
43
0.0000000001
44
0.0000000001
40
0
40
0
40
0
40
0
40
0
40
0
40
0.20000000000000001
40
0.40000000000000002
40
0.60000000000000009
40
0.80000000000000004
40
1
40
1
40
1
40
1
40
1
40
1
41
1
41
1
41
1
41
1
41
1
41
1
41
1
41
1
41
1
41
1
10
-4.4000000000000128
20
95
30
0
10
-4.2240001072806521
20
95.000000056615605
30
0
10
-3.8720003218439558
20
95.000000169849102
30
0
10
-3.3440006436954661
20
95.000000339707
30
0
10
-2.6400010728416845
20
95.000000566197812
30
0
10
-1.7600016092878334
20
95.000000849326909
30
0
10
-1.0560020384522062
20
95.000001075837517
30
0
10
-0.52800236032933157
20
95.000001245723084
30
0
10
-0.17600257491555027
20
95.000001358981024
30
0
10
-2.6822090148925781e-06
20
95.000001415610313
30
0
0
SPLINE
5
220
100
AcDbEntity
8
0
100
AcDbSpline
70
4
71
5
72
16
73
10
74
0
42
0.000000001
43
0.0000000001
44
0.0000000001
40
0
40
0
40
0
40
0
40
0
40
0
40
0.20000000000000001
40
0.40000000000000002
40
0.60000000000000009
40
0.80000000000000004
40
1
40
1
40
1
40
1
40
1
40
1
41
1
41
1
41
1
41
1
41
1
41
1
41
1
41
1
41
1
41
1
10
184.40000000000001
20
-74.999999999999986
30
0
10
184.22400010728066
20
-75.00000005661559
30
0
10
183.87200032184396
20
-75.000000169849073
30
0
10
183.34400064369547
20
-75.000000339706986
30
0
10
182.6400010728417
20
-75.000000566197798
30
0
10
181.76000160928783
20
-75.000000849326881
30
0
10
181.05600203845222
20
-75.000001075837503
30
0
10
180.52800236032934
20
-75.00000124572307
30
0
10
180.17600257491554
20
-75.000001358980995
30
0
10
180.00000268220901
20
-75.000001415610299
30
0
0
SPLINE
5
221
100
AcDbEntity
8
0
100
AcDbSpline
70
4
71
5
72
16
73
10
74
0
42
0.000000001
43
0.0000000001
44
0.0000000001
40
0
40
0
40
0
40
0
40
0
40
0
40
0.20000000000000001
40
0.40000000000000002
40
0.60000000000000009
40
0.80000000000000004
40
1
40
1
40
1
40
1
40
1
40
1
41
1
41
1
41
1
41
1
41
1
41
1
41
1
41
1
41
1
41
1
10
-4.4000000000000021
20
-75
30
0
10
-4.2240001072806415
20
-75.000000056615605
30
0
10
-3.8720003218439447
20
-75.000000169849102
30
0
10
-3.344000643695455
20
-75.000000339707
30
0
10
-2.6400010728416734
20
-75.000000566197812
30
0
10
-1.7600016092878223
20
-75.000000849326909
30
0
10
-1.0560020384521953
20
-75.000001075837517
30
0
10
-0.52800236032932069
20
-75.000001245723084
30
0
10
-0.17600257491553944
20
-75.000001358981024
30
0
10
-2.682209004037064e-06
20
-75.000001415610313
30
0
0
LINE
5
222
100
AcDbEntity
8
0
100
AcDbLine
10
9.621932880084689e-15
20
-62.5
30
0
11
-4.400000000000003
21
-62.5
31
0
0
LINE
5
223
100
AcDbEntity
8
0
100
AcDbLine
10
180
20
-24.999999999999982
30
0
11
180
21
-37.499999999999986
31
0
0
LINE
5
224
100
AcDbEntity
8
0
100
AcDbLine
10
4.6876083261951053e-15
20
-12.5
30
0
11
-4.4000000000000083
21
-12.5
31
0
0
LINE
5
225
100
AcDbEntity
8
0
100
AcDbLine
10
184.40000000000001
20
-62.499999999999964
30
0
11
184.40000000000001
21
-74.999999999999972
31
0
0
SPLINE
5
226
100
AcDbEntity
8
0
100
AcDbSpline
70
4
71
5
72
16
73
10
74
0
42
0.000000001
43
0.0000000001
44
0.0000000001
40
0
40
0
40
0
40
0
40
0
40
0
40
0.20000000000000001
40
0.40000000000000002
40
0.60000000000000009
40
0.80000000000000004
40
1
40
1
40
1
40
1
40
1
40
1
41
1
41
1
41
1
41
1
41
1
41
1
41
1
41
1
41
1
41
1
10
184.40000000000001
20
-24.999999999999982
30
0
10
184.22400010728066
20
-25.000000056615583
30
0
10
183.87200032184396
20
-25.000000169849077
30
0
10
183.34400064369547
20
-25.000000339706983
30
0
10
182.6400010728417
20
-25.000000566197791
30
0
10
181.76000160928783
20
-25.000000849326884
30
0
10
181.05600203845222
20
-25.000001075837499
30
0
10
180.52800236032934
20
-25.000001245723062
30
0
10
180.17600257491554
20
-25.000001358980999
30
0
10
180.00000268220901
20
-25.000001415610296
30
0
0
LINE
5
227
100
AcDbEntity
8
0
100
AcDbLine
10
184.40000000000001
20
-12.499999999999982
30
0
11
184.40000000000001
21
-24.999999999999982
31
0
0
LINE
5
228
100
AcDbEntity
8
0
100
AcDbLine
10
5.921189464667501e-15
20
-25
30
0
11
7.1547706031398975e-15
21
-37.5
31
0
0
SPLINE
5
229
100
AcDbEntity
8
0
100
AcDbSpline
70
4
71
5
72
16
73
10
74
0
42
0.000000001
43
0.0000000001
44
0.0000000001
40
0
40
0
40
0
40
0
40
0
40
0
40
0.20000000000000001
40
0.40000000000000002
40
0.60000000000000009
40
0.80000000000000004
40
1
40
1
40
1
40
1
40
1
40
1
41
1
41
1
41
1
41
1
41
1
41
1
41
1
41
1
41
1
41
1
10
-4.3999999999999995
20
-100
30
0
10
-4.2240001072806388
20
-100.00000005661562
30
0
10
-3.8720003218439425
20
-100.0000001698491
30
0
10
-3.3440006436954528
20
-100.000000339707
30
0
10
-2.6400010728416712
20
-100.00000056619783
30
0
10
-1.7600016092878201
20
-100.00000084932691
30
0
10
-1.0560020384521929
20
-100.00000107583752
30
0
10
-0.52800236032931824
20
-100.0000012457231
30
0
10
-0.17600257491553695
20
-100.00000135898102
30
0
10
-2.6822090015699018e-06
20
-100.00000141561031
30
0
0
LINE
5
230
100
AcDbEntity
8
0
100
AcDbLine
10
180
20
-50
30
0
11
180
21
-62.5
31
0
0
LINE
5
231
100
AcDbEntity
8
0
100
AcDbLine
10
-4.4000000000000057
20
-37.5
30
0
11
-4.4000000000000048
21
-50
31
0
0
LINE
5
232
100
AcDbEntity
8
0
100
AcDbLine
10
7.1547706031398975e-15
20
-37.5
30
0
11
-4.4000000000000057
21
-37.5
31
0
0
LINE
5
233
100
AcDbEntity
8
0
100
AcDbLine
10
184.40000000000001
20
-87.499999999999972
30
0
11
184.40000000000001
21
-99.999999999999972
31
0
0
LINE
5
234
100
AcDbEntity
8
0
100
AcDbLine
10
-4.4000000000000004
20
-87.5
30
0
11
-4.3999999999999995
21
-100
31
0
0
LINE
5
235
100
AcDbEntity
8
0
100
AcDbLine
10
180
20
-75
30
0
11
180
21
-87.5
31
0
0
LINE
5
236
100
AcDbEntity
8
0
100
AcDbLine
10
180
20
-87.5
30
0
11
184.40000000000001
21
-87.499999999999972
31
0
0
SPLINE
5
237
100
AcDbEntity
8
0
100
AcDbSpline
70
4
71
5
72
16
73
10
74
0
42
0.000000001
43
0.0000000001
44
0.0000000001
40
0
40
0
40
0
40
0
40
0
40
0
40
0.20000000000000001
40
0.40000000000000002
40
0.60000000000000009
40
0.80000000000000004
40
1
40
1
40
1
40
1
40
1
40
1
41
1
41
1
41
1
41
1
41
1
41
1
41
1
41
1
41
1
41
1
10
-4.4000000000000066
20
-25
30
0
10
-4.2240001072806459
20
-25.000000056615601
30
0
10
-3.8720003218439496
20
-25.000000169849095
30
0
10
-3.3440006436954599
20
-25.000000339707
30
0
10
-2.6400010728416783
20
-25.000000566197809
30
0
10
-1.7600016092878272
20
-25.000000849326902
30
0
10
-1.0560020384522002
20
-25.000001075837517
30
0
10
-0.52800236032932568
20
-25.00000124572308
30
0
10
-0.17600257491554439
20
-25.000001358981017
30
0
10
-2.6822090089713884e-06
20
-25.000001415610313
30
0
0
LINE
5
238
100
AcDbEntity
8
0
100
AcDbLine
10
180
20
-37.499999999999986
30
0
11
184.40000000000001
21
-37.499999999999986
31
0
0
LINE
5
239
100
AcDbEntity
8
0
100
AcDbLine
10
1.208909515702948e-14
20
-87.5
30
0
11
-4.4000000000000004
21
-87.5
31
0
0
LINE
5
240
100
AcDbEntity
8
0
100
AcDbLine
10
184.40000000000001
20
-37.499999999999986
30
0
11
184.40000000000001
21
-49.999999999999964
31
0
0
SPLINE
5
241
100
AcDbEntity
8
0
100
AcDbSpline
70
4
71
5
72
16
73
10
74
0
42
0.000000001
43
0.0000000001
44
0.0000000001
40
0
40
0
40
0
40
0
40
0
40
0
40
0.20000000000000001
40
0.40000000000000002
40
0.60000000000000009
40
0.80000000000000004
40
1
40
1
40
1
40
1
40
1
40
1
41
1
41
1
41
1
41
1
41
1
41
1
41
1
41
1
41
1
41
1
10
184.40000000000001
20
-99.999999999999972
30
0
10
184.22400010728066
20
-100.00000005661559
30
0
10
183.87200032184396
20
-100.00000016984906
30
0
10
183.34400064369547
20
-100.00000033970696
30
0
10
182.6400010728417
20
-100.0000005661978
30
0
10
181.76000160928783
20
-100.00000084932687
30
0
10
181.05600203845222
20
-100.00000107583747
30
0
10
180.52800236032934
20
-100.00000124572307
30
0
10
180.17600257491554
20
-100.00000135898098
30
0
10
180.00000268220901
20
-100.00000141561028
30
0
0
LINE
5
242
100
AcDbEntity
8
0
100
AcDbLine
10
-4.4000000000000083
20
-12.5
30
0
11
-4.4000000000000066
21
-25
31
0
0
LINE
5
243
100
AcDbEntity
8
0
100
AcDbLine
10
180
20
-12.499999999999982
30
0
11
184.40000000000001
21
-12.499999999999982
31
0
0
LINE
5
244
100
AcDbEntity
8
0
100
AcDbLine
10
-4.400000000000003
20
-62.5
30
0
11
-4.4000000000000021
21
-75
31
0
0
SPLINE
5
245
100
AcDbEntity
8
0
100
AcDbSpline
70
4
71
5
72
16
73
10
74
0
42
0.000000001
43
0.0000000001
44
0.0000000001
40
0
40
0
40
0
40
0
40
0
40
0
40
0.20000000000000001
40
0.40000000000000002
40
0.60000000000000009
40
0.80000000000000004
40
1
40
1
40
1
40
1
40
1
40
1
41
1
41
1
41
1
41
1
41
1
41
1
41
1
41
1
41
1
41
1
10
184.40000000000001
20
-49.999999999999986
30
0
10
184.22400010728066
20
-50.000000056615583
30
0
10
183.87200032184396
20
-50.000000169849073
30
0
10
183.34400064369547
20
-50.000000339706986
30
0
10
182.6400010728417
20
-50.000000566197791
30
0
10
181.76000160928783
20
-50.000000849326881
30
0
10
181.05600203845222
20
-50.000001075837503
30
0
10
180.52800236032934
20
-50.000001245723062
30
0
10
180.17600257491554
20
-50.000001358980995
30
0
10
180.00000268220901
20
-50.000001415610299
30
0
0
LINE
5
246
100
AcDbEntity
8
0
100
AcDbLine
10
1.3322676295501878e-14
20
-100
30
0
11
180
21
-100
31
0
0
SPLINE
5
247
100
AcDbEntity
8
0
100
AcDbSpline
70
4
71
5
72
16
73
10
74
0
42
0.000000001
43
0.0000000001
44
0.0000000001
40
0
40
0
40
0
40
0
40
0
40
0
40
0.20000000000000001
40
0.40000000000000002
40
0.60000000000000009
40
0.80000000000000004
40
1
40
1
40
1
40
1
40
1
40
1
41
1
41
1
41
1
41
1
41
1
41
1
41
1
41
1
41
1
41
1
10
-4.4000000000000048
20
-50
30
0
10
-4.2240001072806441
20
-50.000000056615605
30
0
10
-3.8720003218439474
20
-50.000000169849095
30
0
10
-3.3440006436954577
20
-50.000000339707
30
0
10
-2.6400010728416761
20
-50.000000566197812
30
0
10
-1.7600016092878248
20
-50.000000849326902
30
0
10
-1.0560020384521978
20
-50.000001075837517
30
0
10
-0.52800236032932313
20
-50.000001245723084
30
0
10
-0.17600257491554192
20
-50.000001358981017
30
0
10
-2.6822090065042262e-06
20
-50.000001415610313
30
0
0
LINE
5
248
100
AcDbEntity
8
0
100
AcDbLine
10
180
20
-62.5
30
0
11
184.40000000000001
21
-62.499999999999964
31
0
0
LINE
5
249
100
AcDbEntity
8
0
100
AcDbLine
10
1.0855514018557085e-14
20
-75
30
0
11
1.208909515702948e-14
21
-87.5
31
0
0
LINE
5
250
100
AcDbEntity
8
0
100
AcDbLine
10
8.388351741612294e-15
20
-50
30
0
11
9.621932880084689e-15
21
-62.5
31
0
0
SPLINE
5
251
100
AcDbEntity
8
0
100
AcDbSpline
70
4
71
5
72
16
73
10
74
0
42
0.000000001
43
0.0000000001
44
0.0000000001
40
0
40
0
40
0
40
0
40
0
40
0
40
0.20000000000000001
40
0.40000000000000002
40
0.60000000000000009
40
0.80000000000000004
40
1
40
1
40
1
40
1
40
1
40
1
41
1
41
1
41
1
41
1
41
1
41
1
41
1
41
1
41
1
41
1
10
180
20
-12.499999999999982
30
0
10
179.99999999997556
20
-11.999999999999682
30
0
10
179.99999999993324
20
-10.999999999999197
30
0
10
179.9999999998906
20
-9.4999999999988649
30
0
10
179.99999999987082
20
-7.4999999999990372
30
0
10
179.99999999988873
20
-4.9999999999997211
30
0
10
179.99999999992423
20
-3.0000000000001545
30
0
10
179.99999999995924
20
-1.5000000000002074
30
0
10
179.99999999998585
20
-0.50000000000009048
30
0
10
180
20
4.898587196589413e-15
30
0
0
SPLINE
5
252
100
AcDbEntity
8
0
100
AcDbSpline
70
4
71
5
72
16
73
10
74
0
42
0.000000001
43
0.0000000001
44
0.0000000001
40
0
40
0
40
0
40
0
40
0
40
0
40
0.20000000000000001
40
0.40000000000000002
40
0.60000000000000009
40
0.80000000000000004
40
1
40
1
40
1
40
1
40
1
40
1
41
1
41
1
41
1
41
1
41
1
41
1
41
1
41
1
41
1
41
1
10
4.6876083261951053e-15
20
-12.5
30
0
10
4.3286534412656161e-15
20
-11.999999999997632
30
0
10
3.6107436714069249e-15
20
-10.999999999993546
30
0
10
2.5338790166197936e-15
20
-9.4999999999894769
30
0
10
1.0980594769052263e-15
20
-7.4999999999876898
30
0
10
-6.9671494773616043e-16
20
-4.9999999999895426
30
0
10
-2.1325344874483686e-15
20
-2.9999999999929745
30
0
10
-3.2093991422321839e-15
20
-1.4999999999962368
30
0
10
-3.9273089120879102e-15
20
-0.49999999999869821
30
0
10
-4.2862637970157365e-15
20
0
30
0
0
LWPOLYLINE
5
253
100
AcDbEntity
8
0
100
AcDbPolyline
90
2
70
1
43
0.0
10
71.197528538553115
20
126.94422766286358
42
0.73121785278319629
10
82.465241231545548
20
126.94422766286358
42
-1.3951106840021106
0
LWPOLYLINE
5
254
100
AcDbEntity
8
0
100
AcDbPolyline
90
2
70
1
43
0.0
10
62.647772613131295
20
108.07417708600039
42
0.25341299988216592
10
117.64777261313111
20
108.07417708600042
42
-0.38525070041455634
0
CIRCLE
5
255
100
AcDbEntity
8
0
100
AcDbCircle
10
100
20
125.00000000000003
30
0
40
7.0710678118654755
210
0
220
0
230
1
0
ENDSEC
0
SECTION
2
OBJECTS
0
DICTIONARY
5
C
100
AcDbDictionary
3
ACAD_GROUP
350
D
3
ACAD_MLINESTYLE
350
17
0
DICTIONARY
5
D
100
AcDbDictionary
0
DICTIONARY
5
1A
330
C
100
AcDbDictionary
0
DICTIONARY
5
17
100
AcDbDictionary
0
ENDSEC
0
EOF
